<svg viewBox="0 0 300 220" xmlns="http://www.w3.org/2000/svg">
    <ellipse cx="150" cy="210" rx="140" ry="8" fill="rgba(0,0,0,0.6)"/>
    <path d="M30 50 L130 50 L150 30 L270 30 L270 200 L30 200 Z"
          fill="#8a6f3c" stroke="#3a2c14" stroke-width="2"/>
    <rect x="50" y="60" width="200" height="120" fill="#e8dcb5" stroke="#5a4a2a" stroke-width="1" transform="rotate(-2 150 120)"/>
    <g transform="rotate(-2 150 120)">
        <rect x="70" y="78"  width="120" height="3" fill="#5a4a2a" opacity=".6"/>
        <rect x="70" y="88"  width="160" height="2" fill="#5a4a2a" opacity=".4"/>
        <rect x="70" y="96"  width="140" height="2" fill="#5a4a2a" opacity=".4"/>
        <rect x="70" y="104" width="100" height="2" fill="#5a4a2a" opacity=".4"/>
        <rect x="70" y="116" width="80"  height="3" fill="#5a4a2a" opacity=".5"/>
        <rect x="70" y="126" width="150" height="2" fill="#5a4a2a" opacity=".4"/>
        <g transform="translate(180 140) rotate(-12)">
            <rect x="-30" y="-10" width="60" height="20" fill="none" stroke="#a83020" stroke-width="2"/>
            <text x="0" y="4" text-anchor="middle" font-family="Special Elite" font-size="9" fill="#a83020" letter-spacing="2">PRIVATE</text>
        </g>
    </g>
    <rect x="48" y="64" width="180" height="100" fill="#d8cba0" opacity=".7" transform="rotate(3 140 110)"/>
    <path d="M30 70 L270 70 L270 200 L30 200 Z" fill="#a08148" stroke="#3a2c14" stroke-width="2"/>
    <rect x="80" y="160" width="140" height="22" fill="#f1e3bd" stroke="#3a2c14" stroke-width="1"/>
    <text x="150" y="176" text-anchor="middle" font-family="Special Elite" font-size="11" fill="#3a2c14" letter-spacing="3">PORTFOLIO</text>
    <ellipse cx="220" cy="120" rx="14" ry="8" fill="#5a3c1a" opacity=".4"/>
    <ellipse cx="60"  cy="180" rx="10" ry="4" fill="#5a3c1a" opacity=".3"/>
</svg>
