<svg viewBox="0 0 380 280" xmlns="http://www.w3.org/2000/svg">
    <defs>
        <!-- 폴더 뒷면 (살짝 어둡고 채도 높음) -->
        <linearGradient id="fld-back" x1="0" y1="0" x2="0" y2="1">
            <stop offset="0" stop-color="#a07c40"/>
            <stop offset="0.5" stop-color="#8a6832"/>
            <stop offset="1" stop-color="#5e4622"/>
        </linearGradient>
        <!-- 폴더 앞면 (밝은 마닐라) -->
        <linearGradient id="fld-front" x1="0" y1="0" x2="0" y2="1">
            <stop offset="0" stop-color="#cfa468"/>
            <stop offset="0.5" stop-color="#b48c50"/>
            <stop offset="1" stop-color="#7a5a2c"/>
        </linearGradient>
        <!-- 종이 그라디언트 -->
        <linearGradient id="paper-1" x1="0" y1="0" x2="0" y2="1">
            <stop offset="0" stop-color="#f4e8c2"/>
            <stop offset="1" stop-color="#d8c89e"/>
        </linearGradient>
        <linearGradient id="paper-2" x1="0" y1="0" x2="0" y2="1">
            <stop offset="0" stop-color="#ede0b8"/>
            <stop offset="1" stop-color="#c9b88a"/>
        </linearGradient>
        <!-- 라벨 -->
        <linearGradient id="label" x1="0" y1="0" x2="0" y2="1">
            <stop offset="0" stop-color="#fbf1d2"/>
            <stop offset="1" stop-color="#ddc890"/>
        </linearGradient>
        <!-- 종이결 노이즈 -->
        <filter id="paper-noise" x="0" y="0" width="100%" height="100%">
            <feTurbulence type="fractalNoise" baseFrequency="1.5" numOctaves="2" seed="3"/>
            <feColorMatrix values="0 0 0 0 0  0 0 0 0 0  0 0 0 0 0  0 0 0 0.08 0"/>
        </filter>
        <!-- 종이결 -->
        <pattern id="paper-fiber" width="80" height="80" patternUnits="userSpaceOnUse">
            <rect width="80" height="80" fill="transparent"/>
            <rect x="0" y="0" width="80" height="80" fill="url(#paper-noise-1)" opacity="0.05"/>
        </pattern>
    </defs>

    <!-- 그림자 (책상에 닿는) -->
    <ellipse cx="190" cy="266" rx="180" ry="8" fill="rgba(0,0,0,0.85)"/>
    <ellipse cx="190" cy="268" rx="140" ry="5" fill="rgba(0,0,0,0.95)"/>

    <!-- ===== 폴더 뒷면 ===== -->
    <path d="M30 60 L150 60 Q156 60 160 56 L184 36 Q188 32 196 32 L350 32 Q358 32 358 40 L358 250 Q358 256 350 256 L38 256 Q30 256 30 248 Z"
          fill="url(#fld-back)"/>
    <!-- 뒷면 가장자리 어둠 -->
    <path d="M30 60 Q30 64 30 248 Q30 256 38 256 L350 256 Q358 256 358 250 L358 240 L36 240 L36 60 Z"
          fill="rgba(0,0,0,0.18)"/>
    <!-- 뒷면 위쪽 하이라이트 -->
    <path d="M196 32 L350 32 Q358 32 358 40 L358 44 L196 44 Z" fill="rgba(255,255,255,0.12)"/>

    <!-- ===== 안쪽 종이들 (살짝 들춰진) ===== -->
    <!-- 종이 1: 살짝 회전 + 약간 빠져나옴 -->
    <g transform="rotate(-3 200 150)">
        <rect x="56" y="74" width="262" height="160" rx="2" fill="url(#paper-1)" stroke="rgba(90,70,40,0.45)" stroke-width="0.5"/>
        <!-- 종이결 노이즈 -->
        <rect x="56" y="74" width="262" height="160" rx="2" fill="white" opacity="0.4" filter="url(#paper-noise)"/>
        <!-- 줄 -->
        <g stroke="#5a4a2a" stroke-width="0.4" opacity="0.35">
            <line x1="72" y1="98" x2="304" y2="98"/>
            <line x1="72" y1="112" x2="304" y2="112"/>
            <line x1="72" y1="126" x2="304" y2="126"/>
            <line x1="72" y1="140" x2="304" y2="140"/>
            <line x1="72" y1="154" x2="304" y2="154"/>
            <line x1="72" y1="168" x2="304" y2="168"/>
            <line x1="72" y1="182" x2="304" y2="182"/>
            <line x1="72" y1="196" x2="304" y2="196"/>
            <line x1="72" y1="210" x2="304" y2="210"/>
        </g>
        <!-- 손글씨 같은 텍스트 라인 -->
        <g fill="#3a2a14" opacity="0.8">
            <rect x="76" y="94" width="80" height="2"/>
            <rect x="76" y="108" width="120" height="1.5"/>
            <rect x="76" y="122" width="100" height="1.5"/>
            <rect x="76" y="136" width="140" height="1.5"/>
            <rect x="76" y="150" width="60" height="2" fill="#a83020"/>
            <rect x="142" y="150" width="80" height="1.5"/>
            <rect x="76" y="164" width="160" height="1.5"/>
            <rect x="76" y="178" width="90" height="1.5"/>
            <rect x="76" y="192" width="120" height="1.5"/>
            <rect x="76" y="206" width="70" height="1.5"/>
        </g>
        <!-- 빨간 도장 -->
        <g transform="translate(254 192) rotate(-14)" opacity="0.78">
            <rect x="-32" y="-12" width="64" height="24" fill="none" stroke="#a83020" stroke-width="1.5"/>
            <rect x="-30" y="-10" width="60" height="20" fill="none" stroke="#a83020" stroke-width="0.6"/>
            <text x="0" y="4" text-anchor="middle" font-family="Inter, sans-serif" font-weight="700" font-size="9" fill="#a83020" letter-spacing="2">PRIVATE</text>
        </g>
    </g>

    <!-- 종이 2: 거의 가려져 살짝만 보임 -->
    <g transform="rotate(2 240 150)" opacity="0.85">
        <rect x="60" y="68" width="248" height="156" rx="2" fill="url(#paper-2)" stroke="rgba(90,70,40,0.4)" stroke-width="0.4"/>
    </g>

    <!-- ===== 폴더 앞면 ===== -->
    <path d="M30 88 Q30 80 38 80 L350 80 Q358 80 358 88 L358 250 Q358 256 350 256 L38 256 Q30 256 30 248 Z"
          fill="url(#fld-front)"/>
    <!-- 앞면 텍스처 -->
    <path d="M30 88 Q30 80 38 80 L350 80 Q358 80 358 88 L358 250 Q358 256 350 256 L38 256 Q30 256 30 248 Z"
          fill="white" opacity="0.04" filter="url(#paper-noise)"/>
    <!-- 앞면 위쪽 하이라이트 -->
    <path d="M38 80 L350 80 Q358 80 358 88 L358 92 L30 92 L30 88 Q30 80 38 80 Z" fill="rgba(255,255,255,0.18)"/>
    <!-- 앞면 좌측 그림자 -->
    <path d="M30 88 L30 248 Q30 256 38 256 L42 256 L42 88 Z" fill="rgba(0,0,0,0.12)"/>
    <!-- 앞면 가장자리 -->
    <path d="M30 248 Q30 256 38 256 L350 256 Q358 256 358 250 L358 244 L30 244 Z" fill="rgba(0,0,0,0.18)"/>

    <!-- ===== 라벨 ===== -->
    <g transform="translate(120 198)">
        <rect x="0" y="0" width="170" height="36" rx="1" fill="url(#label)" stroke="rgba(90,70,40,0.5)" stroke-width="0.6"/>
        <rect x="0" y="0" width="170" height="36" rx="1" fill="white" opacity="0.05" filter="url(#paper-noise)"/>
        <!-- 라벨 위쪽 하이라이트 -->
        <rect x="0" y="0" width="170" height="2" fill="rgba(255,255,255,0.4)"/>
        <text x="85" y="16" text-anchor="middle" font-family="Inter, sans-serif" font-weight="700" font-size="11" fill="#2a2114" letter-spacing="3">PORTFOLIO</text>
        <text x="85" y="28" text-anchor="middle" font-family="Inter, sans-serif" font-weight="500" font-size="7" fill="#5a4a2a" letter-spacing="3">FILE · IJZEREEN-001</text>
    </g>

    <!-- ===== 노이즈 / 얼룩 ===== -->
    <ellipse cx="290" cy="140" rx="14" ry="6" fill="rgba(60,40,18,0.28)"/>
    <ellipse cx="60" cy="220" rx="10" ry="4" fill="rgba(60,40,18,0.22)"/>
    <ellipse cx="320" cy="100" rx="6" ry="2" fill="rgba(60,40,18,0.2)"/>

    <!-- 카드/파일 가장자리 들춰짐 -->
    <path d="M340 82 L348 82 L348 90 L344 88 Z" fill="rgba(0,0,0,0.15)"/>
</svg>
